# xmcd
#
# Track frame offsets: 
#        150
#        10415
#        22327
#        33897
#        45247
#        59160
#        72632
#        84970
#        99612
#        112330
#        124192
#        135092
#        146085
#        159597
#        172332
#        187287
#        203242
#        214630
#        227275
#        243665
#        254302
#        269642
#        284385
#        297107
#        308637
#        322890
#        335447
#
# Disc length: 4654 seconds
#
# Revision: 1
# Processed by: cddbd v1.5.2PL0 Copyright (c) Steve Scherf et al.
# Submitted via: ExactAudioCopy v1.3
#
DISCID=a0122c1b
DTITLE=Ray Price  - Ray Price And The Cherokee Cowboys_CD09
DYEAR=1995
DGENRE=Country
TTITLE0=Devil's Dream 
TTITLE1=Linda Lou
TTITLE2=Crazy Arms
TTITLE3=Lil' Liza Jane
TTITLE4=Rubber Dolly
TTITLE5=Burnt Fingers
TTITLE6=Twinkle, Twinkle Little Star
TTITLE7=Maiden's Prayer
TTITLE8=Your Old Love Letters
TTITLE9=Spanish Two Step
TTITLE10=Liberty Bells
TTITLE11=Sing A Sad Song
TTITLE12=The Other Woman
TTITLE13=Tearful Earful
TTITLE14=The Last Letter
TTITLE15=Born To Lose
TTITLE16=Just Call Me Lonesome
TTITLE17=Don't You Ever Get Tired Of Hurting Me
TTITLE18=Funny How The Time Slips Away
TTITLE19=Rose Colored Glasses
TTITLE20=Unloved, Unwanted
TTITLE21=An Eye For An Eye
TTITLE22=Too Much Love Is Spoiling You
TTITLE23=After Effects (From Loving You)
TTITLE24=Let Me Talk To You
TTITLE25=I'm Not Crazy Yet
TTITLE26=A Way To Survive
EXTD=
EXTT0=
EXTT1=
EXTT2=
EXTT3=
EXTT4=
EXTT5=
EXTT6=
EXTT7=
EXTT8=
EXTT9=
EXTT10=
EXTT11=
EXTT12=
EXTT13=
EXTT14=
EXTT15=
EXTT16=
EXTT17=
EXTT18=
EXTT19=
EXTT20=
EXTT21=
EXTT22=
EXTT23=
EXTT24=
EXTT25=
EXTT26=
PLAYORDER=
